<svg width="97" height="101" xmlns="http://www.w3.org/2000/svg" xmlns:xlink="http://www.w3.org/1999/xlink" overflow="hidden"><defs><clipPath id="clip0"><rect x="465" y="527" width="97" height="101"/></clipPath></defs><g clip-path="url(#clip0)" transform="translate(-465 -527)"><path d="M465.953 577.456 481.267 561.956 490.007 570.806 485.64 575.244 481.267 570.804 474.707 577.453 481.267 584.094 496.581 568.602 500.953 573.032 481.267 592.957Z" fill="#E66F24" fill-rule="evenodd"/><path d="M561.956 577.462 546.653 592.956 537.897 584.101 542.269 579.68 546.653 584.101 553.209 577.462 546.653 570.816 531.337 586.314 526.956 581.88 546.653 561.956Z" fill="#E66F24" fill-rule="evenodd"/><path d="M487.954 553.836 503.222 538.957 511.954 547.464 507.586 551.714 503.222 547.464 496.683 553.836 511.954 568.703 507.586 572.957Z" fill="#E66F24" fill-rule="evenodd"/><path d="M539.955 601.643 524.685 616.958 515.957 608.204 520.318 603.831 524.685 608.204 531.232 601.643 515.955 586.331 520.317 581.958Z" fill="#E66F24" fill-rule="evenodd"/><path d="M504.955 558.083 509.329 562.334 513.697 558.083 529.021 572.957 533.385 568.699 518.087 553.839 524.643 547.465 531.209 553.839 526.825 558.082 531.209 562.333 539.955 553.837 524.641 538.957Z" fill="#E66F24" fill-rule="evenodd"/><path d="M514.202 597.277 498.895 581.958 494.523 586.327 509.834 601.643 503.265 608.206 496.711 601.643 501.081 597.277 496.711 592.901 487.954 601.643 503.265 616.958 522.954 597.276 518.582 592.9Z" fill="#E66F24" fill-rule="evenodd"/><path d="M505.402 581.957 518.46 568.908 522.808 573.259 509.75 586.308Z" fill="#E66F24" fill-rule="evenodd"/><path d="M507.569 534.237 514.097 527.71 520.624 534.237 514.097 540.764Z" fill="#E66F24" fill-rule="evenodd"/><path d="M507.576 620.966 514.102 614.435 520.632 620.961 514.106 627.492Z" fill="#E66F24" fill-rule="evenodd"/></g></svg>